# xmcd
#
# Track frame offsets:
#	182
#	22795
#	44957
#	67585
#	89355
#	112265
#
# Disc length: 1750 seconds
#
# Revision: 0
# Processed by: cddbd v1.5.2PL0 Copyright (c) Steve Scherf et al.
# Submitted via: EasyCDDAExtractor 16.1.0.1
#
DISCID=4906d406
DTITLE=Battery Crémil and Marcel Chéry - Moin envie oué ou
DYEAR=1989
DGENRE=Zouk
TTITLE0=Moin envie oué ou
TTITLE1=Maria Maria
TTITLE2=Pani pesonn'
TTITLE3=Chabinn'lan
TTITLE4=Souvenir de la Perfecta
TTITLE5=Poisson
EXTD=
EXTT0=
EXTT1=
EXTT2=
EXTT3=
EXTT4=
EXTT5=
PLAYORDER=
